<svg width="25" height="25" viewBox="0 0 25 25" fill="none" xmlns="http://www.w3.org/2000/svg">
<g clip-path="url(#clip0_2117_8503)">
<path fill-rule="evenodd" clip-rule="evenodd" d="M13.2083 16.2073C13.0208 16.3948 12.7665 16.5001 12.5013 16.5001C12.2362 16.5001 11.9818 16.3948 11.7943 16.2073L6.13732 10.5503C6.04181 10.4581 5.96563 10.3478 5.91322 10.2257C5.86081 10.1037 5.83322 9.97252 5.83207 9.83974C5.83092 9.70696 5.85622 9.57529 5.9065 9.45239C5.95678 9.32949 6.03103 9.21784 6.12492 9.12395C6.21882 9.03006 6.33047 8.9558 6.45337 8.90552C6.57626 8.85524 6.70794 8.82994 6.84072 8.83109C6.9735 8.83225 7.10472 8.85983 7.22672 8.91224C7.34873 8.96465 7.45907 9.04083 7.55132 9.13634L12.5013 14.0863L17.4513 9.13634C17.6399 8.95418 17.8925 8.85339 18.1547 8.85567C18.4169 8.85795 18.6677 8.96312 18.8531 9.14852C19.0385 9.33393 19.1437 9.58474 19.146 9.84694C19.1483 10.1091 19.0475 10.3617 18.8653 10.5503L13.2083 16.2073Z" fill="#373737"/>
</g>
<defs>
<clipPath id="clip0_2117_8503">
<rect width="24" height="24" fill="white" transform="translate(0.5 0.5)"/>
</clipPath>
</defs>
</svg>
