<svg width="100" height="100" viewBox="0 0 100 100" fill="none" xmlns="http://www.w3.org/2000/svg">
<path d="M12.5 39.0625H67.1875C68.0516 39.0625 68.75 38.3625 68.75 37.5V9.375C68.75 8.5125 68.0516 7.8125 67.1875 7.8125H12.5C11.6359 7.8125 10.9375 8.5125 10.9375 9.375V37.5C10.9375 38.3625 11.6359 39.0625 12.5 39.0625ZM14.0625 10.9375H65.625V35.9375H14.0625V10.9375Z" fill="#010140"/>
<path d="M53.125 45.3125H28.125V48.4375H53.125V45.3125Z" fill="#010140"/>
<path d="M59.375 51.5625H21.875V54.6875H59.375V51.5625Z" fill="#010140"/>
<path d="M59.375 57.8125H21.875V60.9375H59.375V57.8125Z" fill="#010140"/>
<path d="M59.375 64.0625H21.875V67.1875H59.375V64.0625Z" fill="#010140"/>
<path d="M57.8125 14.0625H50V17.1875H53.7719L40.8453 28.9391L32.5 17.8125C31.9109 17.025 30.5891 17.025 30 17.8125L20.625 30.3125L23.125 32.1875L31.25 21.3531L39.375 32.1875C39.6391 32.5391 40.0391 32.7641 40.4766 32.8062C40.5266 32.8109 40.5766 32.8125 40.625 32.8125C41.0125 32.8125 41.3875 32.6687 41.6766 32.4062L56.25 19.1563V23.4375H59.375V15.625C59.375 14.7625 58.6766 14.0625 57.8125 14.0625Z" fill="#010140"/>
<path d="M96.875 43.75H90.625V14.0625H92.1875V23.4375H95.3125V12.5V7.8125H92.1875V10.9375H90.625C90.625 10.7703 90.5969 10.6031 90.5438 10.4438L88.9813 5.75625C88.7688 5.11719 88.1734 4.6875 87.5 4.6875V1.5625H84.375V4.6875C83.7016 4.6875 83.1062 5.11719 82.8937 5.75625L81.3312 10.4438C81.2781 10.6031 81.25 10.7703 81.25 10.9375V43.75H78.125V3.125C78.125 2.2625 77.4266 1.5625 76.5625 1.5625H3.125C2.26094 1.5625 1.5625 2.2625 1.5625 3.125V96.875C1.5625 97.7391 2.26094 98.4375 3.125 98.4375H76.5625C77.4266 98.4375 78.125 97.7391 78.125 96.875V92.1875H96.875C97.7391 92.1875 98.4375 91.4891 98.4375 90.625V45.3125C98.4375 44.45 97.7391 43.75 96.875 43.75ZM84.375 23.4375H87.5V46.5062L85.9375 49.6312L84.375 46.5062V23.4375ZM85.5016 7.8125H86.375L87.5 11.1906V20.3125H84.375V11.1906L85.5016 7.8125ZM75 95.3125H4.6875V4.6875H75V43.75H68.75C67.8859 43.75 67.1875 44.45 67.1875 45.3125V79.6875H10.9375C10.0734 79.6875 9.375 80.3859 9.375 81.25V90.625C9.375 91.4891 10.0734 92.1875 10.9375 92.1875H68.75H75V95.3125ZM67.1875 89.0625H12.5V82.8125H67.1875V89.0625ZM95.3125 89.0625H70.3125V46.875H81.25C81.25 47.1172 81.3063 47.3578 81.4141 47.5734L84.5391 53.8234C84.8047 54.3531 85.3453 54.6875 85.9375 54.6875C86.5297 54.6875 87.0703 54.3531 87.3359 53.8234L90.4609 47.5734C90.5687 47.3578 90.625 47.1172 90.625 46.875H95.3125V89.0625Z" fill="#010140"/>
<path d="M92.1875 57.8125H73.4375V60.9375H92.1875V57.8125Z" fill="#010140"/>
<path d="M89.0625 64.0625H76.5625V67.1875H89.0625V64.0625Z" fill="#010140"/>
<path d="M92.1875 70.3125H73.4375V73.4375H92.1875V70.3125Z" fill="#010140"/>
<path d="M92.1875 82.8125H73.4375V85.9375H92.1875V82.8125Z" fill="#010140"/>
<path d="M89.0625 76.5625H76.5625V79.6875H89.0625V76.5625Z" fill="#010140"/>
</svg>
