<svg width="166" height="32" viewBox="0 0 166 32" fill="none" xmlns="http://www.w3.org/2000/svg">
<path d="M10.285 24.2167L11.1247 25.1316V25.5368C11.1247 28.8705 8.6209 31.5974 5.56237 31.5974C2.50384 31.5974 0 28.8692 0 25.5368V13.0117L10.285 24.2167Z" fill="#E8AC1B"/>
<path d="M20.1008 21.6155C19.9559 22.6612 19.5591 23.6745 18.913 24.5325C18.7978 24.6853 18.6767 24.8315 18.5447 24.9738C17.6777 25.9186 16.5909 26.4855 15.4602 26.6705C15.4506 26.6718 15.4399 26.6744 15.4293 26.677C15.288 26.7003 15.1453 26.7159 15.0017 26.7237C14.953 26.7274 14.9042 26.7313 14.8579 26.734C14.8437 26.7366 14.8271 26.7378 14.8128 26.7366C14.7534 26.7405 14.6941 26.743 14.6347 26.743H14.5717C14.4981 26.7456 14.4232 26.743 14.3472 26.7366C14.3401 26.7391 14.3329 26.7391 14.3258 26.734C14.2438 26.7301 14.1584 26.7223 14.0764 26.7145C14.0479 26.7107 14.0206 26.7081 13.992 26.7029C13.9113 26.6951 13.8329 26.6834 13.7533 26.668C12.6225 26.4803 11.5393 25.9148 10.6758 24.9752L10.2684 24.5312L7.86073 21.9079L7.23952 21.2311L6.35463 20.2695L1.66528 15.1601C0.800572 14.218 0.280327 13.0351 0.108099 11.803C-0.152025 9.95755 0.367034 8.00206 1.66528 6.58881C2.3233 5.87184 3.10843 5.37229 3.94463 5.09534C4.48151 4.91156 5.04094 4.82227 5.5992 4.82227C6.12183 4.82227 6.64326 4.89992 7.14807 5.0591C8.02346 5.33347 8.84778 5.84336 9.53313 6.5901L14.2225 11.6995L14.5919 12.1007L15.0801 12.6339L17.8036 15.6001L18.5424 16.4051C19.2278 17.1519 19.6958 18.0513 19.9476 19.0051C20.1732 19.8541 20.2243 20.7484 20.1008 21.6155Z" fill="#217A3D"/>
<path d="M29.1462 10.8738C29.1462 11.1999 29.1225 11.5248 29.0727 11.847C28.8944 13.061 28.3778 14.2283 27.5237 15.1588L27.2636 15.4409L27.1223 15.5975L22.9531 20.1375L18.5133 24.9751C17.6593 25.9057 16.5891 26.4686 15.475 26.6627C15.4618 26.6666 15.4476 26.6693 15.4358 26.6693C15.2469 26.7042 15.0556 26.7262 14.8656 26.7352C14.8513 26.7378 14.8347 26.7391 14.8204 26.7378C14.761 26.7417 14.7017 26.7442 14.6423 26.7442H14.5793C14.5045 26.7442 14.4308 26.7417 14.3548 26.7378C14.3477 26.7403 14.3405 26.7403 14.3334 26.7352C14.2218 26.7288 14.1113 26.721 13.9997 26.7081C13.9225 26.7003 13.8441 26.69 13.7668 26.6769C12.6242 26.4972 11.522 25.9302 10.6466 24.9765C10.5159 24.8341 10.3912 24.6853 10.2772 24.5325C9.62272 23.6628 9.22243 22.6339 9.08346 21.5728C8.96706 20.7186 9.02051 19.8399 9.23907 19.0051C9.49087 18.0513 9.96004 17.1518 10.6454 16.4051L11.3842 15.6001L14.1066 12.6339L14.5984 12.1007L15.0865 11.5714L19.3969 6.87481L19.6559 6.59138C20.34 5.84464 21.1631 5.33474 22.0386 5.06296L22.0409 5.06037C23.085 4.73165 24.2027 4.7433 25.2444 5.09531C26.0806 5.37486 26.8645 5.87311 27.5237 6.59138C28.6047 7.7652 29.1462 9.31951 29.1462 10.8738Z" fill="#217A3D"/>
<path d="M29.2497 13.0117V25.5368C29.2497 28.8706 26.7459 31.5974 23.6873 31.5974C20.6288 31.5974 18.125 28.8692 18.125 25.5368V25.1342L18.9636 24.2206L29.2497 13.0117Z" fill="#E8AC1B"/>
<path d="M37.3867 4.82422H41.3227L47.722 15.6591L54.1213 4.82422H58.0573V27.7391H54.3621V11.307L47.722 22.1101H47.6024L41.0221 11.3722V27.7406H37.3867V4.82422Z" fill="#217A3D"/>
<path d="M61.5977 4.82227H65.503V8.58601H61.5977V4.82227ZM61.7479 11.2383H65.3833V28.5226H61.7479V11.2383Z" fill="#217A3D"/>
<path d="M67.7578 19.4556V19.3904C67.7578 14.4802 71.2428 10.3555 76.0192 10.3555C78.9935 10.3555 80.8571 11.5671 82.3588 13.3337L80.0749 15.986C78.9628 14.7092 77.791 13.825 75.9886 13.825C73.3442 13.825 71.3917 16.3135 71.3917 19.3251V19.3904C71.3917 22.4672 73.3442 24.9223 76.139 24.9223C77.8507 24.9223 79.1131 24.0716 80.2544 22.7948L82.4478 25.1512C80.8848 27.0498 79.0533 28.3918 75.958 28.3918C71.2428 28.3918 67.7578 24.3658 67.7578 19.4556Z" fill="#217A3D"/>
<path d="M84.2773 10.7152H87.9126V14.6109C88.9035 12.0254 90.7365 10.2572 93.5312 10.3876V14.5775H93.321C90.1366 14.5775 87.9126 16.837 87.9126 21.4196V27.9995H84.2773V10.7152Z" fill="#217A3D"/>
<path d="M93.7773 19.4556V19.3904C93.7773 14.4468 97.3834 10.3555 102.25 10.3555C107.117 10.3555 110.693 14.3815 110.693 19.3251V19.3904C110.693 24.3006 107.087 28.3935 102.19 28.3935C97.3527 28.3918 93.7773 24.3658 93.7773 19.4556ZM107.056 19.4556V19.3904C107.056 16.3454 105.044 13.825 102.189 13.825C99.2748 13.825 97.4126 16.3135 97.4126 19.3251V19.3904C97.4126 22.402 99.425 24.9223 102.25 24.9223C105.194 24.9223 107.056 22.4354 107.056 19.4556Z" fill="#217A3D"/>
<path d="M110.48 10.7148H114.386L118.652 23.4164L122.948 10.7148H126.764L120.274 28.1295H116.999L110.48 10.7148Z" fill="#217A3D"/>
<path d="M126.578 19.4241V19.359C126.578 14.4153 129.794 10.3574 134.33 10.3574C139.378 10.3574 141.931 14.6777 141.931 19.6546C141.931 20.014 141.9 20.3751 141.871 20.7677H130.214C130.604 23.5838 132.438 25.1547 134.78 25.1547C136.552 25.1547 137.814 24.4345 139.077 23.0924L141.209 25.1547C139.708 27.1186 137.634 28.3954 134.72 28.3954C130.123 28.3923 126.578 24.7589 126.578 19.4241ZM138.326 18.1473C138.086 15.5936 136.703 13.5964 134.3 13.5964C132.077 13.5964 130.514 15.4617 130.184 18.1473H138.326Z" fill="#217A3D"/>
<path d="M142.805 25.7409L144.428 23.0568C146.169 24.4639 148.003 25.1844 149.626 25.1844C151.189 25.1844 152.089 24.4639 152.089 23.3192V23.2539C152.089 21.9119 150.406 21.454 148.544 20.8322C146.2 20.1119 143.587 19.064 143.587 15.7583V15.693C143.587 12.419 146.081 10.4219 149.234 10.4219C151.218 10.4219 153.38 11.174 155.063 12.3856L153.622 15.2017C152.089 14.1872 150.466 13.5655 149.146 13.5655C147.732 13.5655 146.923 14.2858 146.923 15.2685V15.3336C146.923 16.6106 148.635 17.1337 150.498 17.7887C152.812 18.5743 155.426 19.7207 155.426 22.8294V22.8945C155.426 26.5279 152.841 28.3279 149.537 28.3279C147.28 28.3263 144.786 27.4422 142.805 25.7409Z" fill="#217A3D"/>
<path d="M158.098 22.0767V12.975H156.086V9.57065H158.098V4.82422H161.734V9.57065H166V12.975H161.734V21.4534C161.734 22.9926 162.455 23.6143 163.686 23.6143C164.498 23.6143 165.218 23.4172 165.94 23.0244V26.2651C165.038 26.8216 164.048 27.1491 162.665 27.1491C159.992 27.1508 158.098 25.8738 158.098 22.0767Z" fill="#217A3D"/>
</svg>
