<svg width="150" height="32" viewBox="0 0 150 32" fill="none" xmlns="http://www.w3.org/2000/svg">
<g clip-path="url(#clip0_1668_8207)">
<path d="M52.9456 18.4313L52.0516 20.9615H51.9771C51.828 20.391 51.5549 19.5228 51.1078 18.4809L46.3148 6.44989H41.6211V25.6251H44.7254V13.7925C44.7254 13.0483 44.7254 12.2049 44.7006 11.1631C44.6757 10.6421 44.6261 10.2452 44.6012 9.94757H44.6757C44.8247 10.6918 44.9986 11.2375 45.1227 11.5848L50.8843 25.5755H53.0698L58.7817 11.4607C58.9059 11.1383 59.03 10.4933 59.1542 9.94757H59.2287C59.1542 11.3615 59.1045 12.6266 59.0797 13.3956V25.5507H62.3827V6.40028H57.8628L52.9456 18.4313ZM65.5118 11.808H68.7403V25.5507H65.5118V11.808ZM67.1509 6.00338C66.6045 6.00338 66.1575 6.20183 65.785 6.54912C65.4125 6.89641 65.2138 7.34292 65.2138 7.88865C65.2138 8.40958 65.4125 8.8561 65.785 9.20338C66.1575 9.55067 66.6045 9.72431 67.1509 9.72431C67.6973 9.72431 68.1691 9.52586 68.5168 9.20338C68.8893 8.8561 69.088 8.40958 69.088 7.88865C69.088 7.36772 68.8893 6.92121 68.5168 6.54912C68.1939 6.20183 67.7221 6.00338 67.1509 6.00338ZM80.189 11.684C79.5929 11.56 78.9721 11.4856 78.3761 11.4856C76.9108 11.4856 75.5698 11.808 74.4522 12.453C73.3347 13.098 72.4406 13.991 71.8694 15.1073C71.2734 16.2483 70.9754 17.5631 70.9754 19.0763C70.9754 20.391 71.2734 21.5569 71.8446 22.6235C72.4158 23.6654 73.2105 24.5088 74.2784 25.0794C75.2966 25.6499 76.4886 25.9476 77.8297 25.9476C79.3694 25.9476 80.6857 25.6251 81.7287 25.0297L81.7535 25.0049V22.0282L81.6294 22.1274C81.1575 22.4747 80.6112 22.7724 80.0648 22.946C79.4936 23.1445 78.9721 23.2437 78.5251 23.2437C77.2337 23.2437 76.2155 22.8716 75.4953 22.053C74.7502 21.2592 74.3777 20.1677 74.3777 18.8034C74.3777 17.3894 74.7502 16.2731 75.5201 15.4545C76.29 14.6359 77.3082 14.2142 78.5499 14.2142C79.5929 14.2142 80.6608 14.5615 81.6294 15.2561L81.7535 15.3553V12.2049L81.7287 12.1801C81.3065 12.0065 80.8347 11.808 80.189 11.684ZM90.8429 11.5848C90.0482 11.5848 89.3032 11.8328 88.6575 12.3538C88.1112 12.8003 87.7386 13.4452 87.4158 14.2142H87.391V11.808H84.1625V25.5507H87.391V18.5305C87.391 17.3398 87.6393 16.3476 88.1857 15.6282C88.732 14.884 89.4274 14.5119 90.2718 14.5119C90.5698 14.5119 90.8678 14.5863 91.2403 14.6359C91.588 14.7352 91.8363 14.8344 92.0102 14.9584L92.1343 15.0576V11.8328L92.0598 11.808C91.8363 11.6592 91.3893 11.5848 90.8429 11.5848ZM99.6343 11.5104C97.3744 11.5104 95.5615 12.1801 94.2949 13.4949C93.0035 14.8096 92.3827 16.6204 92.3827 18.9026C92.3827 21.0359 93.0284 22.7724 94.2701 24.0375C95.5118 25.2778 97.2006 25.9228 99.3115 25.9228C101.522 25.9228 103.285 25.253 104.552 23.9135C105.843 22.5739 106.464 20.7879 106.464 18.5801C106.464 16.3972 105.868 14.6607 104.651 13.3956C103.484 12.1305 101.77 11.5104 99.6343 11.5104ZM102.217 22.0778C101.621 22.8468 100.677 23.2189 99.5102 23.2189C98.343 23.2189 97.3992 22.8468 96.7287 22.0282C96.0582 21.2592 95.7353 20.1429 95.7353 18.729C95.7353 17.2654 96.083 16.1491 96.7287 15.3553C97.3992 14.5615 98.3181 14.1646 99.4853 14.1646C100.628 14.1646 101.522 14.5367 102.167 15.3057C102.813 16.0747 103.161 17.191 103.161 18.6545C103.111 20.1429 102.838 21.3088 102.217 22.0778ZM113.666 17.5135C112.648 17.0918 112.002 16.7693 111.704 16.4964C111.456 16.2483 111.331 15.9011 111.331 15.4545C111.331 15.0825 111.48 14.7104 111.853 14.4623C112.225 14.2142 112.648 14.0902 113.268 14.0902C113.815 14.0902 114.386 14.1894 114.932 14.3383C115.479 14.4871 115.975 14.7104 116.373 15.008L116.497 15.1073V12.0809L116.422 12.0561C116.05 11.9073 115.553 11.7584 114.957 11.6344C114.361 11.5352 113.815 11.4856 113.368 11.4856C111.828 11.4856 110.561 11.8576 109.568 12.6762C108.575 13.4452 108.103 14.4871 108.103 15.7026C108.103 16.3476 108.202 16.9181 108.426 17.3894C108.649 17.8607 108.972 18.3073 109.419 18.6794C109.866 19.0266 110.512 19.4235 111.406 19.7956C112.151 20.1181 112.722 20.3662 113.07 20.5646C113.417 20.7631 113.641 20.9863 113.815 21.16C113.939 21.3584 114.013 21.6065 114.013 21.929C114.013 22.8468 113.318 23.2933 111.903 23.2933C111.356 23.2933 110.785 23.1941 110.114 22.9708C109.444 22.7476 108.823 22.4251 108.302 22.053L108.177 21.9538V25.1042L108.252 25.129C108.724 25.3522 109.295 25.5011 109.99 25.6747C110.686 25.7987 111.307 25.898 111.853 25.898C113.517 25.898 114.883 25.5259 115.851 24.7073C116.845 23.9135 117.366 22.8964 117.366 21.5817C117.366 20.6638 117.118 19.8452 116.571 19.2251C115.851 18.6297 114.957 18.0096 113.666 17.5135ZM125.884 11.5104C123.624 11.5104 121.811 12.1801 120.545 13.4949C119.278 14.8096 118.633 16.6204 118.633 18.9026C118.633 21.0359 119.278 22.7724 120.52 24.0375C121.762 25.2778 123.451 25.9228 125.561 25.9228C127.772 25.9228 129.535 25.253 130.802 23.9135C132.093 22.5739 132.714 20.7879 132.714 18.5801C132.714 16.3972 132.118 14.6607 130.901 13.3956C129.734 12.1305 128.02 11.5104 125.884 11.5104ZM128.442 22.0778C127.846 22.8468 126.903 23.2189 125.735 23.2189C124.543 23.2189 123.624 22.8468 122.954 22.0282C122.283 21.2592 121.961 20.1429 121.961 18.729C121.961 17.2654 122.308 16.1491 122.954 15.3553C123.624 14.5615 124.543 14.1646 125.711 14.1646C126.828 14.1646 127.747 14.5367 128.393 15.3057C129.038 16.0747 129.386 17.191 129.386 18.6545C129.386 20.1429 129.063 21.3088 128.442 22.0778ZM149.974 14.4623V11.808H146.72V7.73982L146.621 7.76462L143.542 8.68245L143.467 8.70726V11.808H138.6V10.0716C138.6 9.2778 138.798 8.65765 139.146 8.26075C139.494 7.86385 140.015 7.6654 140.661 7.6654C141.108 7.6654 141.58 7.76462 142.101 7.98788L142.225 8.0623V5.2592L142.151 5.23439C141.704 5.08555 141.108 4.98633 140.338 4.98633C139.369 4.98633 138.525 5.20958 137.755 5.58168C136.985 6.00338 136.414 6.57393 135.992 7.34292C135.57 8.0871 135.346 8.93051 135.346 9.89796V11.808H133.086V14.4375H135.346V25.5507H138.6V14.4623H143.467V21.5321C143.467 24.4344 144.833 25.898 147.565 25.898C148.012 25.898 148.484 25.8235 148.931 25.7491C149.403 25.6499 149.75 25.5259 149.949 25.4266L149.974 25.4018V22.7476L149.85 22.8468C149.651 22.9708 149.477 23.07 149.179 23.1445C148.931 23.2189 148.707 23.2437 148.533 23.2437C147.888 23.2437 147.441 23.0949 147.118 22.7228C146.82 22.3755 146.671 21.8049 146.671 20.9615V14.4623H149.974Z" fill="#737373"/>
<path d="M0 0H15.2235V15.2062H0V0Z" fill="#F25022"/>
<path d="M16.8125 0H32.036V15.2062H16.8125V0Z" fill="#7FBA00"/>
<path d="M0 16.793H15.2235V31.9992H0V16.793Z" fill="#00A4EF"/>
<path d="M16.8125 16.793H32.036V31.9992H16.8125V16.793Z" fill="#FFB900"/>
</g>
<defs>
<clipPath id="clip0_1668_8207">
<rect width="150" height="32" fill="white"/>
</clipPath>
</defs>
</svg>
