<svg width="102" height="104" viewBox="0 0 102 104" fill="none" xmlns="http://www.w3.org/2000/svg">
<path d="M64.5547 102.001V94.0101C64.5547 93.3252 65.0113 92.6402 65.6962 92.4119L75.5136 88.9873V83.5078" stroke="#010140" stroke-width="3" stroke-miterlimit="10"/>
<path d="M95.1503 102.001V94.0101C95.1503 93.3252 94.6937 92.6402 94.0088 92.4119L84.1914 88.9873V83.5078" stroke="#010140" stroke-width="3" stroke-miterlimit="10"/>
<path d="M87.1587 71.4075C87.1587 67.2979 83.9624 64.1016 79.8528 64.1016C75.7432 64.1016 72.5469 67.2979 72.5469 71.4075L73.2318 80.3116C73.2318 81.4532 73.9167 82.5947 75.0583 83.0513L78.7113 85.3344H80.9944L84.6473 83.0513C85.7889 82.5947 86.4738 81.4532 86.4738 80.3116L87.1587 71.4075Z" stroke="#010140" stroke-width="3" stroke-miterlimit="10"/>
<path d="M75.5156 89.2148L78.2554 92.1829H81.4517L84.1914 89.2148" stroke="#010140" stroke-width="3" stroke-miterlimit="10"/>
<path d="M8.16406 102H102" stroke="#010140" stroke-width="3" stroke-miterlimit="10"/>
<path d="M21.1758 102.001V94.0101C21.1758 93.3252 21.6324 92.6402 22.3173 92.4119L32.1347 88.9873V83.5078" stroke="#010140" stroke-width="3" stroke-miterlimit="10"/>
<path d="M51.7714 102.001V94.0101C51.7714 93.3252 51.3148 92.6402 50.6299 92.4119L40.8125 88.9873V83.5078" stroke="#010140" stroke-width="3" stroke-miterlimit="10"/>
<path d="M43.7798 71.4075C43.7798 67.2979 40.5835 64.1016 36.4739 64.1016C32.3643 64.1016 29.168 67.2979 29.168 71.4075L29.8529 80.3116C29.8529 81.4532 30.5378 82.5947 31.6794 83.0513L35.3324 85.3344H37.6155L41.2684 83.0513C42.41 82.5947 43.0949 81.4532 43.0949 80.3116L43.7798 71.4075Z" stroke="#010140" stroke-width="3" stroke-miterlimit="10"/>
<path d="M32.1367 89.2148L34.8764 92.1829H38.0728L40.8125 89.2148" stroke="#010140" stroke-width="3" stroke-miterlimit="10"/>
<path d="M17.9805 43.0944V23.688C17.9805 22.7748 18.6654 22.0898 19.5786 22.0898H29.8526C30.7659 22.0898 31.4508 22.7748 31.4508 23.688V43.0944" stroke="#010140" stroke-width="3" stroke-miterlimit="10"/>
<path d="M18.4375 32.5938H31.4512" stroke="#010140" stroke-width="3" stroke-miterlimit="10"/>
<path d="M30.7656 9.99087V2.45662C30.7656 2.22831 30.9939 2 31.2222 2H88.2999C88.5282 2 88.7565 2.22831 88.7565 2.45662V36.9315C88.7565 37.1598 88.5282 37.3881 88.2999 37.3881H80.7656V43.0959V50.6301C80.7656 51.3151 80.0807 51.5434 79.6241 51.0868L65.4688 37.3881H52.9117" stroke="#010140" stroke-width="3" stroke-miterlimit="10"/>
<path d="M47.4338 15.4703V49.9452C47.4338 50.1735 47.2055 50.4018 46.9772 50.4018H23.9178V56.1096V63.6438C23.9178 64.3287 23.2329 64.557 22.7763 64.1004L8.621 50.4018H2.45662C2.22831 50.4018 2 50.1735 2 49.9452V15.4703C2 15.242 2.22831 15.0137 2.45662 15.0137H47.2055C47.2055 15.0137 47.4338 15.242 47.4338 15.4703Z" stroke="#010140" stroke-width="3" stroke-miterlimit="10"/>
<path d="M54.0547 11.3613H76.8857" stroke="#010140" stroke-width="3" stroke-miterlimit="10"/>
<path d="M54.0547 20.4922H76.8857" stroke="#010140" stroke-width="3" stroke-miterlimit="10"/>
<path d="M54.0547 29.3984H76.8857" stroke="#010140" stroke-width="3" stroke-miterlimit="10"/>
</svg>
