<svg width="129" height="29" viewBox="0 0 129 29" fill="none" xmlns="http://www.w3.org/2000/svg">
<path d="M15.0928 4.02862L15.1265 23.2567C15.128 24.3191 14.2497 25.1823 13.1644 25.1823H5.92707C4.89819 25.1823 4.06363 24.365 4.06363 23.3563V10.1458L0.256215 13.6335L0.179688 24.2925C0.179688 25.9937 0.466602 27.1502 1.04043 27.7634C1.61376 28.3766 2.70606 28.6824 4.3163 28.6824H14.8618C16.4821 28.6824 17.5769 28.3766 18.1452 27.7634C18.7145 27.1502 18.9979 25.9937 18.9979 24.2925V0.455078L15.0928 4.02862Z" fill="#3020E2"/>
<path d="M13.1056 22.03L7.13072 21.9057C6.65954 21.8959 6.57147 20.6726 6.57147 19.9648V12.2648L4.70703 9.86914V22.4044C4.70703 23.3233 5.20283 24.0676 5.81442 24.0676H14.359V23.2202C14.3585 22.2165 13.7741 22.0443 13.1056 22.03Z" fill="#86B0F9"/>
<path d="M9.81668 13.9312V14.965C9.81668 15.4208 9.56803 15.7907 9.08377 15.7907H7.96381C7.47905 15.7907 7.08594 15.4208 7.08594 14.965V13.9312C7.08594 13.4749 7.47905 13.1055 7.96381 13.1055H8.93931C9.42407 13.105 9.81668 13.4749 9.81668 13.9312Z" fill="#FF0000"/>
<path d="M8.76289 19.9933H8.74075C7.99276 19.9933 7.38672 19.3989 7.38672 18.6665V18.6354C7.38672 17.9025 7.99326 17.3086 8.74075 17.3086H8.76289C9.51091 17.3086 10.117 17.9029 10.117 18.6354L9.96293 18.6665C9.96293 19.3989 9.51091 19.9933 8.76289 19.9933Z" fill="#E8EFFB"/>
<path d="M13.3997 15.7912H12.9799C12.3417 15.7912 11.8242 15.2841 11.8242 14.6587V14.2379C11.8242 13.6125 12.3417 13.1055 12.9799 13.1055H13.3997C14.038 13.1055 14.5555 13.6125 14.5555 14.2379V14.6587C14.555 15.2841 14.0375 15.7912 13.3997 15.7912Z" fill="#86B0F9"/>
<path d="M13.3451 19.9162H12.9252C12.287 19.9162 11.7695 19.4091 11.7695 18.7837V18.3629C11.7695 17.7375 12.287 17.2305 12.9252 17.2305H13.3451C13.9833 17.2305 14.5008 17.7375 14.5008 18.3629V18.7837C14.5008 19.4091 13.9833 19.9162 13.3451 19.9162Z" fill="#3020E2"/>
<path d="M8.95443 19.9865H8.53463C7.89638 19.9865 7.37891 19.4795 7.37891 18.854V18.4333C7.37891 17.8078 7.89638 17.3008 8.53463 17.3008H8.95443C9.59271 17.3008 10.1101 17.8078 10.1101 18.4333V18.854C10.1096 19.4795 9.59271 19.9865 8.95443 19.9865Z" fill="#86B0F9"/>
<path d="M13.3451 19.9162H12.9252C12.287 19.9162 11.7695 19.4091 11.7695 18.7837V18.3629C11.7695 17.7375 12.287 17.2305 12.9252 17.2305H13.3451C13.9833 17.2305 14.5008 17.7375 14.5008 18.3629V18.7837C14.5008 19.4091 13.9833 19.9162 13.3451 19.9162Z" fill="#3020E2"/>
<path d="M34.2291 23.304C33.1033 23.304 32.1019 23.0684 31.2248 22.5971C30.3608 22.1258 29.6801 21.4778 29.1826 20.6531C28.6851 19.8284 28.4364 18.8924 28.4364 17.8451V8.43927H31.107V17.7076C31.107 18.3098 31.2379 18.8531 31.4997 19.3374C31.7746 19.8218 32.1477 20.2015 32.619 20.4764C33.0902 20.7382 33.627 20.8691 34.2291 20.8691C34.8444 20.8691 35.3811 20.7382 35.8393 20.4764C36.3106 20.2015 36.6771 19.8218 36.939 19.3374C37.2139 18.8531 37.3513 18.3098 37.3513 17.7076V8.43927H40.0219V17.8451C40.0219 18.8924 39.7731 19.8284 39.2757 20.6531C38.7782 21.4778 38.091 22.1258 37.2139 22.5971C36.3499 23.0684 35.355 23.304 34.2291 23.304ZM42.472 23.0684V8.20363H45.0443V23.0684H42.472ZM52.6427 23.304C51.5954 23.304 50.6398 23.0618 49.7758 22.5775C48.9249 22.0931 48.2441 21.432 47.7336 20.5942C47.2361 19.7564 46.9874 18.8007 46.9874 17.7273C46.9874 16.6538 47.2361 15.6982 47.7336 14.8604C48.2441 14.0225 48.9249 13.3614 49.7758 12.8771C50.6267 12.3927 51.5823 12.1505 52.6427 12.1505C53.69 12.1505 54.639 12.3927 55.49 12.8771C56.3409 13.3614 57.015 14.0225 57.5125 14.8604C58.023 15.6851 58.2783 16.6407 58.2783 17.7273C58.2783 18.8007 58.023 19.7564 57.5125 20.5942C57.002 21.432 56.3212 22.0931 55.4703 22.5775C54.6194 23.0618 53.6769 23.304 52.6427 23.304ZM52.6427 20.9476C53.2187 20.9476 53.7227 20.8102 54.1547 20.5353C54.5998 20.2604 54.9467 19.8807 55.1954 19.3964C55.4572 18.8989 55.5881 18.3425 55.5881 17.7273C55.5881 17.0989 55.4572 16.5491 55.1954 16.0778C54.9467 15.5935 54.5998 15.2138 54.1547 14.9389C53.7227 14.6509 53.2187 14.5069 52.6427 14.5069C52.0536 14.5069 51.5365 14.6509 51.0914 14.9389C50.6463 15.2138 50.2929 15.5935 50.031 16.0778C49.7823 16.5491 49.658 17.0989 49.658 17.7273C49.658 18.3425 49.7823 18.8989 50.031 19.3964C50.2929 19.8807 50.6463 20.2604 51.0914 20.5353C51.5365 20.8102 52.0536 20.9476 52.6427 20.9476ZM64.2938 23.304C63.1549 23.304 62.16 23.0356 61.3091 22.4989C60.4713 21.9491 59.8953 21.2095 59.5811 20.28L61.5054 19.3571C61.7803 19.9593 62.16 20.4305 62.6443 20.7709C63.1418 21.1113 63.6916 21.2815 64.2938 21.2815C64.7651 21.2815 65.1382 21.1767 65.4131 20.9673C65.688 20.7578 65.8254 20.4829 65.8254 20.1425C65.8254 19.9331 65.7665 19.7629 65.6487 19.632C65.544 19.488 65.3934 19.3702 65.1971 19.2785C65.0138 19.1738 64.8109 19.0887 64.5883 19.0233L62.8407 18.5324C61.9374 18.2705 61.2502 17.8713 60.7789 17.3345C60.3207 16.7978 60.0916 16.1629 60.0916 15.4298C60.0916 14.7753 60.2553 14.2058 60.5825 13.7214C60.9229 13.224 61.3876 12.8378 61.9767 12.5629C62.5789 12.288 63.2662 12.1505 64.0385 12.1505C65.0465 12.1505 65.9367 12.3927 66.7091 12.8771C67.4814 13.3614 68.0313 14.0422 68.3585 14.9193L66.3949 15.8422C66.2116 15.3578 65.904 14.9716 65.472 14.6836C65.04 14.3956 64.5556 14.2516 64.0189 14.2516C63.5869 14.2516 63.2465 14.3498 62.9978 14.5462C62.7491 14.7425 62.6247 14.9978 62.6247 15.312C62.6247 15.5084 62.6771 15.6785 62.7818 15.8225C62.8865 15.9665 63.0305 16.0844 63.2138 16.176C63.4102 16.2676 63.6327 16.3527 63.8814 16.4313L65.5898 16.9418C66.4669 17.2036 67.1411 17.5964 67.6123 18.12C68.0967 18.6436 68.3389 19.2851 68.3389 20.0444C68.3389 20.6858 68.1687 21.2553 67.8283 21.7527C67.488 22.2371 67.0167 22.6167 66.4145 22.8916C65.8123 23.1665 65.1054 23.304 64.2938 23.304ZM70.3157 26.9956V12.3862H72.731V14.5069L72.4954 13.9767C72.8619 13.4007 73.3594 12.9556 73.9877 12.6414C74.6161 12.3142 75.3426 12.1505 76.1674 12.1505C77.1754 12.1505 78.0852 12.3993 78.8968 12.8967C79.7084 13.3942 80.3499 14.0618 80.8212 14.8996C81.3055 15.7374 81.5477 16.68 81.5477 17.7273C81.5477 18.7615 81.3121 19.704 80.8408 20.5549C80.3695 21.4058 79.7281 22.08 78.9164 22.5775C78.1048 23.0618 77.1819 23.304 76.1477 23.304C75.3754 23.304 74.6619 23.1535 74.0074 22.8524C73.3659 22.5382 72.8554 22.0931 72.4757 21.5171L72.8881 21.0065V26.9956H70.3157ZM75.8532 20.9476C76.4423 20.9476 76.9659 20.8102 77.4241 20.5353C77.8823 20.2604 78.2357 19.8807 78.4844 19.3964C78.7463 18.912 78.8772 18.3556 78.8772 17.7273C78.8772 17.0989 78.7463 16.5491 78.4844 16.0778C78.2357 15.5935 77.8823 15.2138 77.4241 14.9389C76.9659 14.6509 76.4423 14.5069 75.8532 14.5069C75.2903 14.5069 74.7797 14.6444 74.3215 14.9193C73.8764 15.1942 73.523 15.5804 73.2612 16.0778C73.0124 16.5622 72.8881 17.112 72.8881 17.7273C72.8881 18.3556 73.0124 18.912 73.2612 19.3964C73.523 19.8807 73.8764 20.2604 74.3215 20.5353C74.7797 20.8102 75.2903 20.9476 75.8532 20.9476ZM86.7489 23.304C86.0027 23.304 85.3547 23.1796 84.8049 22.9309C84.2551 22.6822 83.8296 22.3287 83.5285 21.8705C83.2274 21.3993 83.0769 20.856 83.0769 20.2407C83.0769 19.6516 83.2078 19.128 83.4696 18.6698C83.7314 18.1985 84.1373 17.8058 84.6871 17.4916C85.2369 17.1774 85.9307 16.9549 86.7685 16.824L90.2638 16.2545V18.2182L87.2594 18.7287C86.7489 18.8204 86.3693 18.984 86.1205 19.2196C85.8718 19.4553 85.7474 19.7629 85.7474 20.1425C85.7474 20.5091 85.8849 20.8036 86.1598 21.0262C86.4478 21.2356 86.8013 21.3404 87.2202 21.3404C87.7569 21.3404 88.2282 21.2291 88.634 21.0065C89.0529 20.7709 89.3736 20.4502 89.5962 20.0444C89.8318 19.6385 89.9496 19.1935 89.9496 18.7091V15.96C89.9496 15.5018 89.7664 15.1222 89.3998 14.8211C89.0464 14.5069 88.5751 14.3498 87.986 14.3498C87.4362 14.3498 86.9453 14.5004 86.5133 14.8014C86.0944 15.0894 85.7867 15.4756 85.5904 15.96L83.4893 14.9389C83.6987 14.376 84.026 13.8916 84.4711 13.4858C84.9293 13.0669 85.466 12.7396 86.0813 12.504C86.6965 12.2684 87.3642 12.1505 88.0842 12.1505C88.9613 12.1505 89.7336 12.3142 90.4013 12.6414C91.0689 12.9556 91.586 13.4007 91.9525 13.9767C92.3322 14.5396 92.522 15.2007 92.522 15.96V23.0684H90.0871V21.2422L90.6369 21.2029C90.362 21.6611 90.0347 22.0473 89.6551 22.3615C89.2754 22.6625 88.8434 22.8982 88.3591 23.0684C87.8747 23.2255 87.338 23.304 86.7489 23.304ZM100.044 23.304C98.9839 23.304 98.0283 23.0618 97.1773 22.5775C96.3395 22.08 95.6784 21.4124 95.1941 20.5745C94.7097 19.7236 94.4675 18.768 94.4675 17.7076C94.4675 16.6473 94.7097 15.6982 95.1941 14.8604C95.6784 14.0225 96.3395 13.3614 97.1773 12.8771C98.0283 12.3927 98.9839 12.1505 100.044 12.1505C100.804 12.1505 101.51 12.288 102.165 12.5629C102.82 12.8247 103.382 13.1913 103.854 13.6625C104.338 14.1207 104.685 14.6705 104.894 15.312L102.636 16.2938C102.44 15.7571 102.106 15.3251 101.635 14.9978C101.177 14.6705 100.646 14.5069 100.044 14.5069C99.4813 14.5069 98.9773 14.6444 98.5323 14.9193C98.1003 15.1942 97.7599 15.5738 97.5112 16.0582C97.2624 16.5425 97.1381 17.0989 97.1381 17.7273C97.1381 18.3556 97.2624 18.912 97.5112 19.3964C97.7599 19.8807 98.1003 20.2604 98.5323 20.5353C98.9773 20.8102 99.4813 20.9476 100.044 20.9476C100.66 20.9476 101.196 20.784 101.654 20.4567C102.113 20.1295 102.44 19.6909 102.636 19.1411L104.894 20.1622C104.685 20.7644 104.345 21.3076 103.873 21.792C103.402 22.2633 102.839 22.6364 102.185 22.9113C101.53 23.1731 100.817 23.304 100.044 23.304ZM111.912 23.304C110.813 23.304 109.851 23.0553 109.026 22.5578C108.201 22.0604 107.56 21.3862 107.102 20.5353C106.643 19.6844 106.414 18.7418 106.414 17.7076C106.414 16.6342 106.643 15.6851 107.102 14.8604C107.573 14.0225 108.208 13.3614 109.006 12.8771C109.818 12.3927 110.721 12.1505 111.716 12.1505C112.554 12.1505 113.287 12.288 113.915 12.5629C114.557 12.8378 115.1 13.2174 115.545 13.7018C115.99 14.1862 116.331 14.7425 116.566 15.3709C116.802 15.9862 116.92 16.6538 116.92 17.3738C116.92 17.5571 116.907 17.7469 116.88 17.9433C116.867 18.1396 116.835 18.3098 116.782 18.4538H108.535V16.4902H115.329L114.112 17.4131C114.23 16.8109 114.197 16.2742 114.014 15.8029C113.843 15.3316 113.555 14.9585 113.15 14.6836C112.757 14.4087 112.279 14.2713 111.716 14.2713C111.179 14.2713 110.702 14.4087 110.283 14.6836C109.864 14.9454 109.543 15.3382 109.32 15.8618C109.111 16.3724 109.032 16.9942 109.085 17.7273C109.032 18.3818 109.118 18.9644 109.34 19.4749C109.576 19.9724 109.916 20.3585 110.361 20.6335C110.819 20.9084 111.343 21.0458 111.932 21.0458C112.521 21.0458 113.019 20.9215 113.424 20.6727C113.843 20.424 114.171 20.0902 114.406 19.6713L116.488 20.6924C116.278 21.2029 115.951 21.6545 115.506 22.0473C115.061 22.44 114.531 22.7476 113.915 22.9702C113.313 23.1927 112.646 23.304 111.912 23.304ZM122.934 23.304C121.796 23.304 120.801 23.0356 119.95 22.4989C119.112 21.9491 118.536 21.2095 118.222 20.28L120.146 19.3571C120.421 19.9593 120.801 20.4305 121.285 20.7709C121.782 21.1113 122.332 21.2815 122.934 21.2815C123.406 21.2815 123.779 21.1767 124.054 20.9673C124.329 20.7578 124.466 20.4829 124.466 20.1425C124.466 19.9331 124.407 19.7629 124.289 19.632C124.185 19.488 124.034 19.3702 123.838 19.2785C123.654 19.1738 123.452 19.0887 123.229 19.0233L121.481 18.5324C120.578 18.2705 119.891 17.8713 119.42 17.3345C118.961 16.7978 118.732 16.1629 118.732 15.4298C118.732 14.7753 118.896 14.2058 119.223 13.7214C119.564 13.224 120.028 12.8378 120.617 12.5629C121.22 12.288 121.907 12.1505 122.679 12.1505C123.687 12.1505 124.577 12.3927 125.35 12.8771C126.122 13.3614 126.672 14.0422 126.999 14.9193L125.036 15.8422C124.852 15.3578 124.545 14.9716 124.113 14.6836C123.681 14.3956 123.196 14.2516 122.66 14.2516C122.228 14.2516 121.887 14.3498 121.638 14.5462C121.39 14.7425 121.265 14.9978 121.265 15.312C121.265 15.5084 121.318 15.6785 121.422 15.8225C121.527 15.9665 121.671 16.0844 121.854 16.176C122.051 16.2676 122.273 16.3527 122.522 16.4313L124.23 16.9418C125.108 17.2036 125.782 17.5964 126.253 18.12C126.737 18.6436 126.98 19.2851 126.98 20.0444C126.98 20.6858 126.809 21.2553 126.469 21.7527C126.129 22.2371 125.657 22.6167 125.055 22.8916C124.453 23.1665 123.746 23.304 122.934 23.304Z" fill="#3020E2"/>
</svg>
