<svg width="96" height="90" viewBox="0 0 96 90" fill="none" xmlns="http://www.w3.org/2000/svg">
<rect x="2.5" y="2.5" width="91" height="85" stroke="#BAEAFA" stroke-width="5"/>
<path d="M8.96 45H11.44V40.68H13.856C16.288 40.68 18.08 39.336 18.08 36.888C18.08 34.392 16.32 33.08 13.856 33.08H8.96V45ZM11.44 38.52V35.24H13.872C14.912 35.24 15.6 35.896 15.6 36.888C15.6 37.864 14.912 38.52 13.872 38.52H11.44ZM19.4444 45H21.9244V40.68H24.0204L26.4364 45H29.2204L26.5004 40.248C27.7644 39.672 28.5644 38.52 28.5644 36.888C28.5644 34.392 26.8044 33.08 24.3404 33.08H19.4444V45ZM21.9244 38.52V35.24H24.3564C25.3964 35.24 26.0844 35.896 26.0844 36.888C26.0844 37.864 25.3964 38.52 24.3564 38.52H21.9244ZM36.1925 45.192C39.7925 45.192 42.5125 42.536 42.5125 39.032C42.5125 35.528 39.8085 32.888 36.1925 32.888C32.5765 32.888 29.8725 35.528 29.8725 39.032C29.8725 42.536 32.5925 45.192 36.1925 45.192ZM36.1925 42.952C34.0165 42.952 32.3525 41.336 32.3525 39.032C32.3525 36.728 34.0165 35.128 36.1925 35.128C38.3685 35.128 40.0325 36.728 40.0325 39.032C40.0325 41.336 38.3685 42.952 36.1925 42.952ZM44.0381 45H47.9261C51.7821 45 54.2781 42.488 54.2781 39.032C54.2781 35.576 51.7981 33.08 47.9261 33.08H44.0381V45ZM46.5181 42.84V35.24H47.9901C50.3101 35.24 51.7981 36.712 51.7981 39.032C51.7981 41.352 50.3101 42.84 47.9901 42.84H46.5181ZM63.0838 33.08V40.472C63.0838 41.96 62.1238 42.952 60.6838 42.952C59.2438 42.952 58.2838 41.96 58.2838 40.472V33.08H55.8038V40.472C55.8038 43.144 57.7558 45.192 60.6838 45.192C63.6118 45.192 65.5638 43.144 65.5638 40.472V33.08H63.0838ZM73.1073 45.192C75.6833 45.192 77.5873 43.768 78.2113 42.008L76.0193 40.952C75.6033 42.104 74.5473 42.952 73.1073 42.952C70.9953 42.952 69.5713 41.368 69.5713 39.032C69.5713 36.712 70.9953 35.128 73.1073 35.128C74.5473 35.128 75.6033 35.976 76.0193 37.128L78.2113 36.072C77.5873 34.312 75.6833 32.888 73.1073 32.888C69.6513 32.888 67.0913 35.48 67.0913 39.032C67.0913 42.568 69.6833 45.192 73.1073 45.192ZM81.9515 45H84.4315V35.24H87.4235V33.08H78.9275V35.24H81.9515V45ZM16.315 70.192C18.971 70.192 20.731 68.768 20.731 66.624C20.731 64.992 19.723 63.92 17.723 63.296L15.355 62.56C14.587 62.32 14.171 61.904 14.171 61.344C14.171 60.608 14.891 60.048 15.979 60.048C17.259 60.048 18.219 60.752 18.619 61.888L20.699 60.912C20.059 59.152 18.267 57.888 15.979 57.888C13.403 57.888 11.691 59.312 11.691 61.44C11.691 63.024 12.651 64.176 14.683 64.816L17.115 65.584C17.819 65.808 18.251 66.144 18.251 66.768C18.251 67.472 17.531 68.032 16.315 68.032C15.131 68.032 13.931 67.264 13.355 65.872L11.275 66.848C11.931 68.864 13.947 70.192 16.315 70.192ZM22.1788 70H30.1788L30.1948 67.84H24.6588V65.104H29.8748V62.944H24.6588V60.24H30.1948V58.08H22.1788V70ZM36.2681 70.192C38.9241 70.192 40.6841 68.768 40.6841 66.624C40.6841 64.992 39.6761 63.92 37.6761 63.296L35.3081 62.56C34.5401 62.32 34.1241 61.904 34.1241 61.344C34.1241 60.608 34.8441 60.048 35.9321 60.048C37.2121 60.048 38.1721 60.752 38.5721 61.888L40.6521 60.912C40.0121 59.152 38.2201 57.888 35.9321 57.888C33.3561 57.888 31.6441 59.312 31.6441 61.44C31.6441 63.024 32.6041 64.176 34.6361 64.816L37.0681 65.584C37.7721 65.808 38.2041 66.144 38.2041 66.768C38.2041 67.472 37.4841 68.032 36.2681 68.032C35.0841 68.032 33.8841 67.264 33.3081 65.872L31.2281 66.848C31.8841 68.864 33.9001 70.192 36.2681 70.192ZM46.6119 70.192C49.2679 70.192 51.0279 68.768 51.0279 66.624C51.0279 64.992 50.0199 63.92 48.0199 63.296L45.6519 62.56C44.8839 62.32 44.4679 61.904 44.4679 61.344C44.4679 60.608 45.1879 60.048 46.2759 60.048C47.5559 60.048 48.5159 60.752 48.9159 61.888L50.9959 60.912C50.3559 59.152 48.5639 57.888 46.2759 57.888C43.6999 57.888 41.9879 59.312 41.9879 61.44C41.9879 63.024 42.9479 64.176 44.9799 64.816L47.4119 65.584C48.1159 65.808 48.5479 66.144 48.5479 66.768C48.5479 67.472 47.8279 68.032 46.6119 68.032C45.4279 68.032 44.2279 67.264 43.6519 65.872L41.5719 66.848C42.2279 68.864 44.2439 70.192 46.6119 70.192ZM52.4756 70H54.9556V58.08H52.4756V70ZM62.8019 70.192C66.4019 70.192 69.1219 67.536 69.1219 64.032C69.1219 60.528 66.4179 57.888 62.8019 57.888C59.1859 57.888 56.4819 60.528 56.4819 64.032C56.4819 67.536 59.2019 70.192 62.8019 70.192ZM62.8019 67.952C60.6259 67.952 58.9619 66.336 58.9619 64.032C58.9619 61.728 60.6259 60.128 62.8019 60.128C64.9779 60.128 66.6419 61.728 66.6419 64.032C66.6419 66.336 64.9779 67.952 62.8019 67.952ZM77.9275 58.08V65.248L72.5515 58.08H70.6475V70H73.1275V62.784L78.4875 70H80.4075V58.08H77.9275Z" fill="#BAEAFA"/>
</svg>
