<svg width="64" height="64" viewBox="0 0 64 64" fill="none" xmlns="http://www.w3.org/2000/svg">
<path d="M49.9291 38.2732C47.275 45.4407 40.383 50.5556 32.2688 50.6597C32.2161 50.6657 32.1811 50.6657 32.1344 50.6657C32.0877 50.6773 32.0467 50.6773 32 50.6773C31.9533 50.6773 31.9066 50.6773 31.8596 50.6657C31.8011 50.6657 31.7544 50.6657 31.7076 50.6597C31.2751 50.654 30.8484 50.631 30.4216 50.596C30.8366 50.7063 31.2634 50.776 31.7076 50.7933C23.5528 50.6713 16.643 45.5104 13.9715 38.3196C13.2174 36.2668 12.8024 34.0573 12.8024 31.7435C12.8024 29.8937 13.0712 28.1193 13.5682 26.4142C15.8537 18.6031 23.0558 12.8504 31.6434 12.694C31.7604 12.688 31.8831 12.688 32 12.688C32.1109 12.688 32.2279 12.688 32.3391 12.694C40.9442 12.8387 48.1695 18.5857 50.461 26.4142C50.4318 26.4839 50.4086 26.5535 50.3733 26.6232C50.8411 28.2583 51.0925 29.9691 51.0925 31.7435C51.0925 34.04 50.6832 36.2321 49.9291 38.2732ZM33.0347 0.0289345C32.6956 0.00561905 32.3623 -6.48499e-05 32.0235 -6.48499e-05H32.0175H32C14.328 -6.48499e-05 0 14.2248 0 31.7435C0 47.7315 11.9135 60.9589 27.411 63.1624C28.9074 63.3888 30.4391 63.4871 32 63.4871C33.5841 63.4871 35.1451 63.3711 36.665 63.1568C52.1271 60.9126 64 47.7025 64 31.7435C64 14.5671 50.2272 0.573978 33.0347 0.0289345Z" fill="#231D4E"/>
<path d="M21.4469 34.237C19.7633 28.1656 23.3583 21.8852 29.4791 20.2208C35.5995 18.5393 41.9249 22.1055 43.6085 28.1772L21.4469 34.237ZM32.3378 12.694C32.2266 12.688 32.1096 12.688 31.9987 12.688C31.8818 12.688 31.7588 12.688 31.6419 12.694C23.0545 12.8503 15.8524 18.6033 13.5666 26.4141C13.0699 28.1189 12.8008 29.8934 12.8008 31.7435C12.8008 34.0573 13.2158 36.2667 13.9702 38.3195C16.6417 45.5103 23.5512 50.6713 31.7064 50.793C31.2621 50.7756 30.8353 50.706 30.4203 50.5959C27.8889 49.9173 26.0359 47.6211 26.0359 44.9013C26.0359 41.6364 28.7015 38.9865 31.9987 38.9865H32.0162C37.8211 38.9865 43.0355 36.4928 46.6483 32.5435C48.2267 30.8271 49.501 28.8323 50.3721 26.6231C50.407 26.5532 50.4305 26.4838 50.4598 26.4141C48.1683 18.5854 40.9426 12.8387 32.3378 12.694Z" fill="#FAA31A"/>
</svg>
