<svg width="60" height="60" viewBox="0 0 60 60" fill="none" xmlns="http://www.w3.org/2000/svg">
<path d="M12.1875 31.875H30.0937C30.5531 35.0513 33.2588 37.5 36.5625 37.5C39.8662 37.5 42.5719 35.0513 43.0312 31.875H47.8125C50.1056 31.875 52.0106 30.2175 52.4137 28.0388C55.6313 27.6169 58.125 24.8944 58.125 21.5625C58.125 18.2306 55.6313 15.5081 52.4137 15.0862C52.0106 12.9075 50.1056 11.25 47.8125 11.25H35.5312C35.0719 8.07375 32.3662 5.625 29.0625 5.625C25.7588 5.625 23.0531 8.07375 22.5938 11.25H18.6562C18.1969 8.07375 15.4913 5.625 12.1875 5.625C8.56313 5.625 5.625 8.56313 5.625 12.1875C5.625 15.8119 8.56313 18.75 12.1875 18.75C15.4913 18.75 18.1969 16.3013 18.6562 13.125H22.5956C23.055 16.3013 25.7606 18.75 29.0644 18.75C32.3681 18.75 35.0737 16.3013 35.5331 13.125H47.8144C49.0744 13.125 50.1319 13.9631 50.4881 15.1087C47.3775 15.6244 45 18.3075 45 21.5625C45 24.8175 47.3775 27.5006 50.4863 28.0163C50.13 29.1619 49.0725 30 47.8125 30H43.0312C42.5719 26.8237 39.8662 24.375 36.5625 24.375C33.2588 24.375 30.5531 26.8237 30.0937 30H12.1875C9.89437 30 7.98938 31.6575 7.58625 33.8362C4.36875 34.2581 1.875 36.9806 1.875 40.3125C1.875 43.6444 4.36875 46.3669 7.58625 46.7887C7.98938 48.9675 9.89437 50.625 12.1875 50.625H16.9688C17.4281 53.8013 20.1338 56.25 23.4375 56.25C26.7412 56.25 29.4469 53.8013 29.9062 50.625H41.3456C41.805 53.8013 44.5106 56.25 47.8144 56.25C51.4387 56.25 54.3769 53.3119 54.3769 49.6875C54.3769 46.0631 51.4369 43.125 47.8125 43.125C44.5088 43.125 41.8031 45.5737 41.3438 48.75H29.9062C29.4469 45.5737 26.7412 43.125 23.4375 43.125C20.1338 43.125 17.4281 45.5737 16.9688 48.75H12.1875C10.9275 48.75 9.87 47.9119 9.51375 46.7663C12.6225 46.2506 15 43.5675 15 40.3125C15 37.0575 12.6225 34.3744 9.51375 33.8588C9.87 32.7131 10.9275 31.875 12.1875 31.875ZM12.1875 15C10.6369 15 9.375 13.7381 9.375 12.1875C9.375 10.6369 10.6369 9.375 12.1875 9.375C13.7381 9.375 15 10.6369 15 12.1875C15 13.7381 13.7381 15 12.1875 15ZM29.0625 15C27.5119 15 26.25 13.7381 26.25 12.1875C26.25 10.6369 27.5119 9.375 29.0625 9.375C30.6131 9.375 31.875 10.6369 31.875 12.1875C31.875 13.7381 30.6131 15 29.0625 15ZM48.75 21.5625C48.75 20.0119 50.0119 18.75 51.5625 18.75C53.1131 18.75 54.375 20.0119 54.375 21.5625C54.375 23.1131 53.1131 24.375 51.5625 24.375C50.0119 24.375 48.75 23.1131 48.75 21.5625ZM36.5625 28.125C38.1131 28.125 39.375 29.3869 39.375 30.9375C39.375 32.4881 38.1131 33.75 36.5625 33.75C35.0119 33.75 33.75 32.4881 33.75 30.9375C33.75 29.3869 35.0119 28.125 36.5625 28.125ZM47.8125 46.875C49.3631 46.875 50.625 48.1369 50.625 49.6875C50.625 51.2381 49.3631 52.5 47.8125 52.5C46.2619 52.5 45 51.2381 45 49.6875C45 48.1369 46.2619 46.875 47.8125 46.875ZM23.4375 46.875C24.9881 46.875 26.25 48.1369 26.25 49.6875C26.25 51.2381 24.9881 52.5 23.4375 52.5C21.8869 52.5 20.625 51.2381 20.625 49.6875C20.625 48.1369 21.8869 46.875 23.4375 46.875ZM11.25 40.3125C11.25 41.8631 9.98812 43.125 8.4375 43.125C6.88688 43.125 5.625 41.8631 5.625 40.3125C5.625 38.7619 6.88688 37.5 8.4375 37.5C9.98812 37.5 11.25 38.7619 11.25 40.3125Z" fill="#0000FF"/>
</svg>
