<svg width="60" height="60" viewBox="0 0 60 60" fill="none" xmlns="http://www.w3.org/2000/svg">
<g id="streamline:global-learning-solid" clip-path="url(#clip0_234_2304)">
<path id="Vector" fill-rule="evenodd" clip-rule="evenodd" d="M0 23.0057C0.63284 16.9666 3.37998 11.3455 7.75599 7.13578C12.132 2.92603 17.8552 0.398567 23.9143 0C23.7678 0.118446 23.6342 0.252045 23.5157 0.398571C18.254 6.86849 14.9673 14.7171 14.0486 23.0057H0ZM15.6514 38.1857C15.6514 38.3743 15.66 38.5629 15.6729 38.7471V49.4443C11.4096 47.6594 7.70499 44.7605 4.94747 41.0513C2.18996 37.3422 0.481082 32.9596 0 28.3629H14.0486C14.3614 31.1914 14.9486 33.9771 15.8057 36.6729C15.7035 37.1692 15.6518 37.6789 15.6514 38.1857ZM19.4443 28.3714H26.9443L20.1729 31.3029C20.0995 31.3345 20.0266 31.3674 19.9543 31.4014C19.742 30.3973 19.5704 29.3851 19.44 28.3671L19.4443 28.3714ZM51.2014 23.0143H37.1357C36.2206 14.7216 32.9353 6.86829 27.6729 0.394286C27.5528 0.249054 27.4178 0.116893 27.27 0C33.3321 0.394676 39.0594 2.92041 43.4389 7.13052C47.8184 11.3406 50.568 16.9639 51.2014 23.0057V23.0143ZM19.4443 23.0143H31.7443C31.0002 17.1373 28.8943 11.5153 25.5943 6.59571C22.2949 11.514 20.189 17.1388 19.4443 23.0143ZM41.3571 28.7571C41.0636 28.63 40.7471 28.5644 40.4271 28.5644C40.1072 28.5644 39.7907 28.63 39.4971 28.7571L22.4657 36.1371C22.2886 36.2134 22.1216 36.3113 21.9686 36.4286C21.5145 36.6826 21.1364 37.0533 20.8735 37.5024C20.6105 37.9514 20.4722 38.4625 20.4729 38.9829V51.96C20.4729 52.7358 20.781 53.4797 21.3296 54.0283C21.8781 54.5768 22.6221 54.885 23.3979 54.885C24.1736 54.885 24.9176 54.5768 25.4661 54.0283C26.0147 53.4797 26.3229 52.7358 26.3229 51.96V42.1029L39.4971 47.8071C40.0929 48.0643 40.7657 48.0643 41.3571 47.8071L58.3886 40.4314C58.8073 40.25 59.1639 39.9501 59.4144 39.5686C59.6649 39.1871 59.7983 38.7407 59.7983 38.2843C59.7983 37.8279 59.6649 37.3815 59.4144 37C59.1639 36.6185 58.8073 36.3186 58.3886 36.1371L41.3571 28.7571ZM28.7871 48.0857L37.4614 51.8443C38.3969 52.2494 39.4055 52.4585 40.425 52.4585C41.4445 52.4585 42.4531 52.2494 43.3886 51.8443L52.0629 48.0857V53.9057C52.0629 54.42 51.9 54.9171 51.5914 55.32L49.7271 53.9057L51.5871 55.3243L51.5829 55.3329L51.5743 55.3414L51.5571 55.3671L51.5057 55.4314C51.2845 55.696 51.0484 55.9479 50.7986 56.1857C50.3271 56.6314 49.6414 57.2014 48.7286 57.7629C46.8814 58.8943 44.1386 59.9657 40.4271 59.9657C36.7157 59.9657 33.9729 58.8943 32.13 57.7586C31.1645 57.1674 30.2849 56.4464 29.5157 55.6157C29.4617 55.5538 29.4089 55.4909 29.3571 55.4271L29.3057 55.3629L29.2886 55.3371L29.28 55.3286V55.32H29.2714C28.9652 54.9137 28.7997 54.4188 28.8 53.91L28.7829 48.0814L28.7871 48.0857Z" fill="#0000FF"/>
</g>
<defs>
<clipPath id="clip0_234_2304">
<rect width="60" height="60" fill="white"/>
</clipPath>
</defs>
</svg>
