<svg width="60" height="60" viewBox="0 0 60 60" fill="none" xmlns="http://www.w3.org/2000/svg">
<g id="collaborative-combine-hand-svgrepo-com 1">
<path id="Vector" d="M39.3789 52.5H21.5664V58.125H39.3789V52.5Z" fill="#0000FF"/>
<path id="Vector_2" d="M14.2243 2.29918L1.62891 14.8945L4.94348 18.2091L17.5388 5.61375L14.2243 2.29918Z" fill="#0000FF"/>
<path id="Vector_3" d="M46.045 2.17666L42.7305 5.49121L55.3258 18.0866L58.6404 14.772L46.045 2.17666Z" fill="#0000FF"/>
<path id="Vector_4" d="M41.7728 9.09994L39.2497 8.993C38.5222 8.89031 37.7807 8.9581 37.0839 9.19102C36.387 9.42394 35.7538 9.81563 35.2343 10.3352L30.0738 15.4956L24.6799 10.1017C24.2116 9.64408 23.6273 9.32293 22.99 9.17278C22.3527 9.02262 21.6865 9.04916 21.0632 9.24952C20.4751 9.42836 19.8495 9.44405 19.2533 9.29491C18.657 9.14578 18.1125 8.83743 17.6778 8.40282L16.8773 7.60231L6.93359 17.546L8.55359 19.166L8.44664 21.689C8.34395 22.4165 8.41174 23.158 8.64465 23.8548C8.87757 24.5517 9.26925 25.1849 9.78878 25.7045L18.8004 34.7161C18.9209 33.5332 19.4877 32.4406 20.3854 31.6609L17.5777 28.8531L18.2406 28.1902L21.1733 31.123C21.589 30.8863 22.0388 30.7153 22.5068 30.6162V27.1531L20.8922 25.5386L21.5551 24.8756L22.5068 25.8273V20.8118C22.4963 19.9828 22.7905 19.1788 23.3336 18.5523C23.8767 17.9259 24.6308 17.5206 25.4529 17.4133C25.763 17.3833 26.0757 17.3974 26.3818 17.4553L25.2292 16.3027L25.8921 15.6398L27.576 17.3237C27.8742 16.7458 28.3356 16.2683 28.9028 15.9503C29.47 15.6322 30.1181 15.4877 30.7666 15.5347C31.5494 15.6261 32.2754 15.9885 32.819 16.559C33.3626 17.1295 33.6895 17.8722 33.743 18.6584C34.2758 18.4052 34.8663 18.2978 35.4541 18.3472C36.2895 18.4472 37.058 18.8539 37.6105 19.4884C38.163 20.123 38.4601 20.9401 38.4443 21.7813V24.9912C39.2975 25.1693 40.0841 25.5817 40.7161 26.182C41.348 26.7823 41.8001 27.5468 42.0218 28.3898L44.6361 25.7755L45.299 26.4385L42.1909 29.5465C42.191 29.5594 42.1943 29.5714 42.1943 29.5844V32.6969C43.0365 32.6088 43.8234 32.2355 44.4245 31.639L50.8371 25.2263C51.2947 24.758 51.6159 24.1737 51.766 23.5364C51.9161 22.8991 51.8896 22.2329 51.6892 21.6096C51.5104 21.0215 51.4947 20.3959 51.6438 19.7997C51.793 19.2034 52.1013 18.6588 52.536 18.2242L53.3365 17.4237L43.3928 7.47998L41.7728 9.09994Z" fill="#0000FF"/>
<path id="Vector_5" d="M28.013 20.3338C27.9418 19.7247 27.6339 19.1681 27.1557 18.7842C26.6776 18.4003 26.0676 18.2199 25.4576 18.2819C24.8658 18.3635 24.3248 18.6598 23.9372 19.1143C23.5496 19.5689 23.3426 20.15 23.3555 20.7472V31.3947C22.3609 31.3947 21.4071 31.7898 20.7038 32.4931C20.0006 33.1963 19.6055 34.1501 19.6055 35.1447V44.2136C19.6131 44.8683 19.7991 45.5085 20.1436 46.0653C20.4881 46.6221 20.9779 47.0744 21.5604 47.3735C22.1026 47.6629 22.5561 48.0941 22.8723 48.6212C23.1884 49.1483 23.3555 49.7514 23.3555 50.366V51.4981H37.418V49.2072L39.2776 47.4987C39.8647 47.0569 40.3411 46.4847 40.6691 45.8272C40.9972 45.1698 41.168 44.445 41.168 43.7103V29.5197C41.168 28.5251 40.7729 27.5713 40.0696 26.8681C39.3664 26.1648 38.4125 25.7697 37.418 25.7697V21.7173C37.4339 21.1105 37.2247 20.5193 36.8307 20.0575C36.4368 19.5958 35.8858 19.2962 35.2841 19.2164C34.6935 19.1642 34.1052 19.3385 33.6383 19.7039C33.1714 20.0693 32.8608 20.5985 32.7694 21.1843H33.1992V35.6624H32.2617V21.1843H32.7305V18.9048C32.7464 18.298 32.5372 17.7068 32.1432 17.245C31.7493 16.7833 31.1983 16.4837 30.5966 16.4039C30.2724 16.3748 29.9457 16.4136 29.6374 16.5177C29.329 16.6217 29.0456 16.7889 28.8054 17.0085C28.5652 17.2282 28.3733 17.4954 28.2421 17.7932C28.1108 18.0911 28.043 18.413 28.043 18.7385V20.3338H28.5117V34.8119H27.5742V20.3338H28.013ZM23.7297 39.4124H22.7922V31.9124H23.7297V39.4124ZM36.9492 26.0608H37.8867V35.8514H36.9492V26.0608Z" fill="#0000FF"/>
</g>
</svg>
